<?xml version="1.0" encoding="utf-8"?>
<!-- Generator: Adobe Illustrator 15.1.0, SVG Export Plug-In . SVG Version: 6.00 Build 0)  -->
<!DOCTYPE svg PUBLIC "-//W3C//DTD SVG 1.1//EN" "http://www.w3.org/Graphics/SVG/1.1/DTD/svg11.dtd">
<svg version="1.1" id="Layer_1" xmlns="http://www.w3.org/2000/svg" xmlns:xlink="http://www.w3.org/1999/xlink" x="0px" y="0px"
	 width="170px" height="170px" viewBox="0 0 170 170" enable-background="new 0 0 170 170" xml:space="preserve">
<g>
	<rect x="90" y="35" fill="#FFFFFF" width="15" height="100"/>
	<rect x="65" y="62.333" fill="#FFFFFF" width="15" height="72.667"/>
	<rect x="40" y="92" fill="#FFFFFF" width="15" height="43"/>
	<rect x="115" y="45.333" fill="#FFFFFF" width="15" height="89.667"/>
	<path fill="#0477BE" d="M85,0C38.056,0,0,38.056,0,85c0,46.943,38.056,85,85,85c46.943,0,85-38.057,85-85
		C170,38.056,131.943,0,85,0z M55,135H40V92h15V135z M80,135H65V62.333h15V135z M105,135H90V35h15V135z M130,135h-15V45.333h15V135z
		"/>
</g>
</svg>
